<mxfile host="65bd71144e">
    <diagram id="KIsJp9c2JzqWeaTfQSFo" name="Page-1">
        <mxGraphModel dx="1315" dy="596" grid="1" gridSize="10" guides="1" tooltips="1" connect="1" arrows="1" fold="1" page="1" pageScale="1" pageWidth="850" pageHeight="1100" math="0" shadow="0">
            <root>
                <mxCell id="0"/>
                <mxCell id="1" parent="0"/>
                <mxCell id="5" value="" style="rounded=0;whiteSpace=wrap;html=1;" vertex="1" parent="1">
                    <mxGeometry x="20" y="40" width="990" height="440" as="geometry"/>
                </mxCell>
                <mxCell id="3" value="" style="rounded=0;whiteSpace=wrap;html=1;" vertex="1" parent="1">
                    <mxGeometry x="450" y="80" width="550" height="390" as="geometry"/>
                </mxCell>
                <mxCell id="8wnlv1VK79KA64QE_dpq-1" value="" style="rounded=0;whiteSpace=wrap;html=1;" parent="1" vertex="1">
                    <mxGeometry x="50" y="80" width="370" height="390" as="geometry"/>
                </mxCell>
                <mxCell id="8wnlv1VK79KA64QE_dpq-2" value="" style="rounded=0;whiteSpace=wrap;html=1;" parent="1" vertex="1">
                    <mxGeometry x="100" y="120" width="290" height="150" as="geometry"/>
                </mxCell>
                <mxCell id="8wnlv1VK79KA64QE_dpq-3" value="" style="rounded=0;whiteSpace=wrap;html=1;" parent="1" vertex="1">
                    <mxGeometry x="470" y="120" width="290" height="150" as="geometry"/>
                </mxCell>
                <mxCell id="8wnlv1VK79KA64QE_dpq-4" value="" style="rounded=0;whiteSpace=wrap;html=1;" parent="1" vertex="1">
                    <mxGeometry x="100" y="290" width="290" height="150" as="geometry"/>
                </mxCell>
                <mxCell id="8wnlv1VK79KA64QE_dpq-7" value="Firebase Controlles" style="rounded=1;whiteSpace=wrap;html=1;" parent="1" vertex="1">
                    <mxGeometry x="130" y="210" width="100" height="50" as="geometry"/>
                </mxCell>
                <mxCell id="8wnlv1VK79KA64QE_dpq-8" value="User" style="rounded=1;whiteSpace=wrap;html=1;" parent="1" vertex="1">
                    <mxGeometry x="510" y="210" width="100" height="50" as="geometry"/>
                </mxCell>
                <mxCell id="8wnlv1VK79KA64QE_dpq-9" value="Models" style="text;html=1;align=center;verticalAlign=middle;resizable=0;points=[];autosize=1;strokeColor=none;" parent="1" vertex="1">
                    <mxGeometry x="470" y="120" width="50" height="20" as="geometry"/>
                </mxCell>
                <mxCell id="8wnlv1VK79KA64QE_dpq-10" value="Controllers" style="text;html=1;align=center;verticalAlign=middle;resizable=0;points=[];autosize=1;strokeColor=none;" parent="1" vertex="1">
                    <mxGeometry x="100" y="120" width="70" height="20" as="geometry"/>
                </mxCell>
                <mxCell id="8wnlv1VK79KA64QE_dpq-12" value="Data Access" style="text;html=1;align=center;verticalAlign=middle;resizable=0;points=[];autosize=1;strokeColor=none;" parent="1" vertex="1">
                    <mxGeometry x="100" y="290" width="80" height="20" as="geometry"/>
                </mxCell>
                <mxCell id="8wnlv1VK79KA64QE_dpq-13" value="Web based API" style="text;html=1;align=center;verticalAlign=middle;resizable=0;points=[];autosize=1;strokeColor=none;" parent="1" vertex="1">
                    <mxGeometry x="50" y="80" width="100" height="20" as="geometry"/>
                </mxCell>
                <mxCell id="8wnlv1VK79KA64QE_dpq-14" value="Poster" style="rounded=1;whiteSpace=wrap;html=1;" parent="1" vertex="1">
                    <mxGeometry x="510" y="145" width="100" height="50" as="geometry"/>
                </mxCell>
                <mxCell id="8wnlv1VK79KA64QE_dpq-15" value="Admin" style="rounded=1;whiteSpace=wrap;html=1;" parent="1" vertex="1">
                    <mxGeometry x="620" y="210" width="100" height="50" as="geometry"/>
                </mxCell>
                <mxCell id="8wnlv1VK79KA64QE_dpq-19" value="" style="rounded=0;whiteSpace=wrap;html=1;" parent="1" vertex="1">
                    <mxGeometry x="470" y="290" width="510" height="150" as="geometry"/>
                </mxCell>
                <mxCell id="8wnlv1VK79KA64QE_dpq-20" value="Feed" style="rounded=1;whiteSpace=wrap;html=1;" parent="1" vertex="1">
                    <mxGeometry x="500" y="370" width="100" height="50" as="geometry"/>
                </mxCell>
                <mxCell id="8wnlv1VK79KA64QE_dpq-21" value="View" style="text;html=1;align=center;verticalAlign=middle;resizable=0;points=[];autosize=1;strokeColor=none;" parent="1" vertex="1">
                    <mxGeometry x="470" y="290" width="40" height="20" as="geometry"/>
                </mxCell>
                <mxCell id="8wnlv1VK79KA64QE_dpq-22" value="Edit" style="rounded=1;whiteSpace=wrap;html=1;" parent="1" vertex="1">
                    <mxGeometry x="620" y="370" width="100" height="50" as="geometry"/>
                </mxCell>
                <mxCell id="8wnlv1VK79KA64QE_dpq-23" value="Post" style="rounded=1;whiteSpace=wrap;html=1;" parent="1" vertex="1">
                    <mxGeometry x="500" y="310" width="100" height="50" as="geometry"/>
                </mxCell>
                <mxCell id="8wnlv1VK79KA64QE_dpq-24" value="Sign in" style="rounded=1;whiteSpace=wrap;html=1;" parent="1" vertex="1">
                    <mxGeometry x="620" y="310" width="100" height="50" as="geometry"/>
                </mxCell>
                <mxCell id="8wnlv1VK79KA64QE_dpq-25" value="Sign up" style="rounded=1;whiteSpace=wrap;html=1;" parent="1" vertex="1">
                    <mxGeometry x="740" y="370" width="100" height="50" as="geometry"/>
                </mxCell>
                <mxCell id="8wnlv1VK79KA64QE_dpq-26" value="Read" style="rounded=1;whiteSpace=wrap;html=1;" parent="1" vertex="1">
                    <mxGeometry x="740" y="310" width="220" height="50" as="geometry"/>
                </mxCell>
                <mxCell id="8wnlv1VK79KA64QE_dpq-27" value="Reset Pass" style="rounded=1;whiteSpace=wrap;html=1;" parent="1" vertex="1">
                    <mxGeometry x="860" y="370" width="100" height="50" as="geometry"/>
                </mxCell>
                <mxCell id="8wnlv1VK79KA64QE_dpq-28" value="Post" style="rounded=1;whiteSpace=wrap;html=1;" parent="1" vertex="1">
                    <mxGeometry x="620" y="145" width="100" height="50" as="geometry"/>
                </mxCell>
                <mxCell id="8wnlv1VK79KA64QE_dpq-29" value="" style="rounded=0;whiteSpace=wrap;html=1;" parent="1" vertex="1">
                    <mxGeometry x="780" y="120" width="200" height="150" as="geometry"/>
                </mxCell>
                <mxCell id="8wnlv1VK79KA64QE_dpq-30" value="Pass Reset" style="rounded=1;whiteSpace=wrap;html=1;" parent="1" vertex="1">
                    <mxGeometry x="790" y="145" width="180" height="50" as="geometry"/>
                </mxCell>
                <mxCell id="8wnlv1VK79KA64QE_dpq-31" value="Template" style="text;html=1;align=center;verticalAlign=middle;resizable=0;points=[];autosize=1;strokeColor=none;" parent="1" vertex="1">
                    <mxGeometry x="780" y="120" width="60" height="20" as="geometry"/>
                </mxCell>
                <mxCell id="8wnlv1VK79KA64QE_dpq-32" value="Activation" style="rounded=1;whiteSpace=wrap;html=1;" parent="1" vertex="1">
                    <mxGeometry x="790" y="205" width="180" height="50" as="geometry"/>
                </mxCell>
                <mxCell id="8wnlv1VK79KA64QE_dpq-33" value="DDBB System" style="rounded=1;whiteSpace=wrap;html=1;" parent="1" vertex="1">
                    <mxGeometry x="130" y="320" width="100" height="50" as="geometry"/>
                </mxCell>
                <mxCell id="8wnlv1VK79KA64QE_dpq-34" value="Auth System" style="rounded=1;whiteSpace=wrap;html=1;" parent="1" vertex="1">
                    <mxGeometry x="130" y="380" width="210" height="50" as="geometry"/>
                </mxCell>
                <mxCell id="8wnlv1VK79KA64QE_dpq-35" value="Auth System" style="rounded=1;whiteSpace=wrap;html=1;" parent="1" vertex="1">
                    <mxGeometry x="240" y="320" width="100" height="50" as="geometry"/>
                </mxCell>
                <mxCell id="8wnlv1VK79KA64QE_dpq-36" value="Auth Controllers" style="rounded=1;whiteSpace=wrap;html=1;" parent="1" vertex="1">
                    <mxGeometry x="130" y="150" width="100" height="50" as="geometry"/>
                </mxCell>
                <mxCell id="8wnlv1VK79KA64QE_dpq-37" value="Token Controllers" style="rounded=1;whiteSpace=wrap;html=1;" parent="1" vertex="1">
                    <mxGeometry x="250" y="210" width="100" height="50" as="geometry"/>
                </mxCell>
                <mxCell id="8wnlv1VK79KA64QE_dpq-38" value="Post Controllers" style="rounded=1;whiteSpace=wrap;html=1;" parent="1" vertex="1">
                    <mxGeometry x="250" y="150" width="100" height="50" as="geometry"/>
                </mxCell>
                <mxCell id="4" value="MVC" style="text;html=1;align=center;verticalAlign=middle;resizable=0;points=[];autosize=1;strokeColor=none;" vertex="1" parent="1">
                    <mxGeometry x="460" y="90" width="40" height="20" as="geometry"/>
                </mxCell>
                <mxCell id="6" value="Bolsa de empleos" style="text;html=1;align=center;verticalAlign=middle;resizable=0;points=[];autosize=1;strokeColor=none;" vertex="1" parent="1">
                    <mxGeometry x="30" y="50" width="110" height="20" as="geometry"/>
                </mxCell>
            </root>
        </mxGraphModel>
    </diagram>
</mxfile>